<svg xmlns="http://www.w3.org/2000/svg" fill="none" viewBox="0 0 1001 1001">
  <mask id="a" width="1001" height="1001" x="0" y="0" maskUnits="userSpaceOnUse" style="mask-type:alpha">
    <circle cx="500.871" cy="500.341" r="500" fill="#36D399"/>
  </mask>
  <g mask="url(#a)">
    <path fill="#36D399" d="M1000.87 500.341c0 276.142-223.857 499.999-499.999 499.999-276.142 0-500-223.857-500-499.999 0-276.142 223.858-500 500-500s499.999 223.858 499.999 500Z"/>
    <path fill="#291334" fill-rule="evenodd" d="M500.871 950.341c248.528 0 450-201.472 450-450s-201.472-450-450-450-449.9999 201.472-449.9999 450 201.4719 450 449.9999 450Zm0 49.999c276.142 0 499.999-223.857 499.999-499.999 0-276.142-223.857-500-499.999-500-276.142 0-500 223.858-500 500s223.858 499.999 500 499.999Z" clip-rule="evenodd"/>
    <path fill="#291334" d="m113.111 818.539 707.1068-707.1068 70.7107 70.7107-707.1068 707.1068z"/>
    <path fill="#291334" d="m183.822 111.432 707.1068 707.1068-70.7107 70.7107-707.1068-707.1068z"/>
  </g>
</svg>